<?xml version="1.0" encoding="utf-8"?>
<!-- Generator: Adobe Illustrator 24.0.1, SVG Export Plug-In . SVG Version: 6.00 Build 0)  -->
<svg version="1.1" id="Layer_1" xmlns="http://www.w3.org/2000/svg" xmlns:xlink="http://www.w3.org/1999/xlink" x="0px" y="0px"
	 viewBox="0 0 100 100" style="enable-background:new 0 0 100 100;" xml:space="preserve">
<style type="text/css">
	.st0{fill:#149FDA;}
	.st1{opacity:0.97;fill:#28AC34;enable-background:new    ;}
	.st2{opacity:0.97;}
	.st3{fill:#28AC34;}
</style>
<g>
	<path class="st0" d="M40.92,35.21c-0.45-0.05-0.91-0.08-1.38-0.08c-0.26,0-0.52,0.01-0.77,0.03c-3.63-0.05-7.27-0.01-10.91-0.02
		c-0.33,0-0.67,0.05-1.04,0.08v23.07c0.38,0.03,0.71,0.08,1.04,0.08c3.54,0,7.07,0.03,10.61-0.01c0,0,0,0,0,0
		c0.35,0.03,0.71,0.05,1.07,0.05c0.73,0,1.45-0.07,2.14-0.2c0.94-0.17,1.84-0.46,2.68-0.85c-0.04-0.07-0.08-0.13-0.12-0.2
		c-0.68-1.19-1.36-2.39-2.04-3.59c-0.84,0.33-1.75,0.52-2.7,0.52h-8.2c-0.11-0.03-0.23-0.07-0.35-0.1V39.52
		c0.13-0.03,0.24-0.07,0.35-0.1h8.2c3.98,0,7.23,3.19,7.32,7.15c0.32,0.57,0.64,1.16,0.98,1.75c0.02,0.04,0.04,0.07,0.06,0.11
		l2.77-5.16C49.29,38.97,45.52,35.75,40.92,35.21z"/>
	<path class="st1" d="M68.42,35c1.79,0,3.44,0,5.27,0c-0.17,0.4-0.27,0.71-0.43,0.99c-3.69,6.72-7.38,13.44-11.08,20.15
		c-0.3,0.54-0.66,1.08-1.07,1.53c-1,1.09-1.97,1.1-2.97,0.02c-0.4-0.43-0.74-0.93-1.03-1.45c-0.94-1.62-1.85-3.27-2.77-4.9
		c-0.15-0.27-0.32-0.52-0.53-0.86c-1.06,1.92-2.05,3.76-3.09,5.58c-0.37,0.64-0.81,1.28-1.33,1.8c-0.84,0.85-1.71,0.84-2.56,0.01
		c-0.44-0.43-0.83-0.94-1.14-1.48c-2.77-4.87-5.51-9.75-8.26-14.63c-0.1-0.18-0.17-0.39-0.26-0.59c1.82-0.56,5.41-0.1,6.4,2.14
		c1.25,2.82,2.89,5.46,4.43,8.31c3.01-5.61,5.96-11.11,8.9-16.61c1.76,0,3.43,0,5.36,0c-2.01,3.67-3.93,7.19-5.89,10.77
		c1.01,1.88,2.02,3.76,3.13,5.83C62.54,45.97,65.47,40.5,68.42,35z"/>
	<g class="st2">
		<path class="st3" d="M28.38,60.69h-1.55v4.14h1.46c1.57,0,2.21-0.88,2.21-2.1C30.5,61.69,29.91,60.69,28.38,60.69z M28.22,63.73
			v-1.9c0.57-0.11,0.87,0.33,0.87,0.9C29.09,63.32,28.79,63.81,28.22,63.73z"/>
		<rect x="31.06" y="60.69" class="st3" width="1.43" height="4.14"/>
		<path class="st3" d="M35.32,63.31h0.53v0.41h-0.53c-0.59,0-0.82-0.49-0.82-1c0-0.55,0.26-1.06,0.77-1.06
			c0.33,0,0.47,0.14,0.57,0.46l1.23-0.56c-0.26-0.49-0.65-0.98-1.8-0.98c-1.46,0-2.19,0.9-2.19,2.17c0,1.24,0.7,2.07,2.24,2.07h0.21
			l0.33-0.28v0.28h1.33V62.4h-1.86L35.32,63.31L35.32,63.31z"/>
		<rect x="37.83" y="60.69" class="st3" width="1.43" height="4.14"/>
		<polygon class="st3" points="39.86,61.8 40.67,61.8 40.67,64.83 42.1,64.83 42.1,61.8 42.91,61.8 42.91,60.69 39.86,60.69 		"/>
		<path class="st3" d="M44.11,60.69l-1.19,4.14h1.31l0.19-0.75h0.91l0.17,0.75h1.42l-1.18-4.14H44.11z M44.57,63.08l0.31-1.29
			l0.3,1.29H44.57z"/>
		<polygon class="st3" points="48.76,63.74 48.76,60.69 47.36,60.69 47.36,64.83 49.9,64.83 49.9,63.74 		"/>
	</g>
	<g>
		<polygon class="st0" points="55.36,63.18 54.81,60.69 53.84,60.69 53.28,63.18 53.07,60.69 51.63,60.69 52.21,64.83 53.8,64.83 
			54.33,62.82 54.85,64.83 56.44,64.83 57.02,60.69 55.58,60.69 		"/>
		<path class="st0" d="M58.29,60.69l-1.19,4.14h1.31l0.19-0.75h0.91l0.17,0.75h1.42l-1.18-4.14H58.29z M58.75,63.08l0.31-1.29
			l0.3,1.29H58.75z"/>
		<path class="st0" d="M66.29,60.69l-1.16,4.04l-1.01-2.35l0.84-1.69h-1.41l-0.61,1.27v-1.27h-1.41v4.14h1.41v-1.88l0.69,1.88h1.47
			h0.07h1.24l0.19-0.75h0.91l0.17,0.75h1.42l-1.18-4.14H66.29z M66.75,63.08l0.31-1.29l0.3,1.29H66.75z"/>
		<path class="st0" d="M72.51,60.69h-1.64l-1.19,4.14H71l0.19-0.75h0.91l0.17,0.75h1.42L72.51,60.69z M71.33,63.08l0.31-1.29
			l0.3,1.29H71.33z"/>
	</g>
</g>
</svg>
